<?xml version="1.0" encoding="iso-8859-1"?>
<!-- Generator: Adobe Illustrator 19.0.0, SVG Export Plug-In . SVG Version: 6.00 Build 0)  -->
<svg version="1.1" id="Layer_1" xmlns="http://www.w3.org/2000/svg" xmlns:xlink="http://www.w3.org/1999/xlink" x="0px" y="0px"
	 viewBox="0 0 509.287 509.287" style="enable-background:new 0 0 509.287 509.287;" xml:space="preserve">
<circle style="fill:#6EB1E1;" cx="254.644" cy="254.644" r="254.644"/>
<path style="fill:#4F5565;" d="M420.45,327.205c-5.425,0-9.494,4.408-9.494,9.494v36.62c0,50.183-40.689,90.872-90.871,90.872
	s-90.872-40.689-90.872-90.872v-31.195c53.574-30.856,93.245-81.717,115.963-130.204h-21.362
	c-22.04,42.723-57.303,86.464-104.095,113.589c0,0,0,0-0.339,0c0,0,0,0-0.339,0c-46.792-27.126-82.395-70.527-104.095-113.589
	H93.584c23.057,48.487,62.728,99.348,115.963,130.204v31.195c0,60.694,49.505,110.199,110.199,110.199
	s110.199-49.505,110.199-110.199v-36.62C429.944,331.613,425.536,327.205,420.45,327.205z"/>
<circle style="fill:#F1F3F7;" cx="420.45" cy="297.706" r="45.097"/>
<circle style="fill:#BDBDBE;" cx="420.45" cy="297.706" r="21.701"/>
<g>
	<path style="fill:#FFFFFF;" d="M362.808,162.755c8.138-32.89,6.442-60.016-4.408-76.291c-9.494-14.241-21.701-22.718-36.62-25.43
		c-29.16-5.425-56.964,13.563-58.321,14.241c-4.408,3.052-5.425,8.816-2.374,13.224s8.816,5.425,13.224,2.374
		c0.339,0,22.718-15.258,43.74-11.189c9.833,2.034,17.632,7.46,24.413,17.293c7.799,11.868,8.477,34.246,1.695,61.372
		c-4.069,16.954-11.189,35.264-20.683,53.913h21.362C352.975,194.967,359.078,178.352,362.808,162.755z"/>
	<path style="fill:#FFFFFF;" d="M94.601,158.008c-6.781-27.126-6.103-49.505,1.695-61.372c6.442-9.833,14.58-15.597,24.074-17.293
		c21.023-4.069,43.74,10.85,44.079,11.189c4.408,3.052,10.172,2.034,13.224-2.374c3.052-4.408,2.034-10.172-2.374-13.224
		c-1.017-0.678-29.16-19.666-58.321-14.241c-14.919,2.713-27.126,11.528-36.62,25.43c-10.85,16.615-12.546,43.74-4.408,76.291
		c3.73,15.597,9.833,32.212,17.971,49.166h21.362C105.452,193.272,98.67,174.962,94.601,158.008z"/>
</g>
<g>
	<circle style="fill:#393D47;" cx="266.511" cy="82.395" r="17.971"/>
	<circle style="fill:#393D47;" cx="172.249" cy="82.395" r="17.971"/>
</g>
<g>
</g>
<g>
</g>
<g>
</g>
<g>
</g>
<g>
</g>
<g>
</g>
<g>
</g>
<g>
</g>
<g>
</g>
<g>
</g>
<g>
</g>
<g>
</g>
<g>
</g>
<g>
</g>
<g>
</g>
</svg>
