<?xml version="1.0" encoding="iso-8859-1"?>
<!-- Generator: Adobe Illustrator 19.0.0, SVG Export Plug-In . SVG Version: 6.00 Build 0)  -->
<svg version="1.1" id="Layer_1" xmlns="http://www.w3.org/2000/svg" xmlns:xlink="http://www.w3.org/1999/xlink" x="0px" y="0px"
	 viewBox="0 0 512 512" style="enable-background:new 0 0 512 512;" xml:space="preserve">
<circle style="fill:#263A7A;" cx="256" cy="256" r="256"/>
<path style="fill:#121149;" d="M508.947,295.614l-96.503-96.503l-0.245,0.571l-91.56-94.101l-93.084,96.978l-28.444-3.448
	l-28.265-32.466h-28.444L64.409,248.48l92.444,92.444l-57.297,57.297l109.459,109.459C224.247,510.507,239.949,512,256,512
	C383.912,512,489.905,418.187,508.947,295.614z"/>
<rect x="327.111" y="199.111" style="fill:#940030;" width="85.333" height="199.111"/>
<rect x="213.333" y="256" style="fill:#FF6262;" width="85.333" height="142.222"/>
<rect x="255.431" y="256" style="fill:#FF0F27;" width="43.236" height="142.222"/>
<g>
	<rect x="99.556" y="312.889" style="fill:#FFAD9E;" width="85.333" height="85.333"/>
	<path style="fill:#FFAD9E;" d="M313.751,102.572h-56.889c-5.236,0-9.481,4.246-9.481,9.481s4.246,9.481,9.481,9.481h34.863
		l-78.391,78.389l-50.185-50.183c-3.699-3.703-9.707-3.703-13.407,0l-85.333,85.333c-3.703,3.701-3.703,9.706,0,13.407
		c1.85,1.851,4.277,2.777,6.704,2.777c2.427,0,4.853-0.926,6.704-2.777l78.629-78.627l50.185,50.183c3.7,3.703,9.707,3.703,13.407,0
		l84.232-84.233v33.139c0,5.236,4.246,9.481,9.481,9.481s9.482-4.246,9.482-9.481v-56.889
		C323.232,106.818,318.986,102.572,313.751,102.572z"/>
</g>
<path style="fill:#FF6262;" d="M313.751,102.572h-56.889c-5.236,0-9.481,4.246-9.481,9.481s4.246,9.481,9.481,9.481h34.863
	l-78.391,78.389l-0.143-0.143v23.019c2.474,0.038,4.96-0.876,6.847-2.763l84.232-84.233v33.139c0,5.236,4.246,9.481,9.481,9.481
	s9.482-4.246,9.482-9.481v-56.889C323.232,106.818,318.986,102.572,313.751,102.572z"/>
<g>
</g>
<g>
</g>
<g>
</g>
<g>
</g>
<g>
</g>
<g>
</g>
<g>
</g>
<g>
</g>
<g>
</g>
<g>
</g>
<g>
</g>
<g>
</g>
<g>
</g>
<g>
</g>
<g>
</g>
</svg>
